<?xml version="1.0" standalone="no"?>
<!DOCTYPE svg PUBLIC "-//W3C//DTD SVG 20010904//EN"
 "http://www.w3.org/TR/2001/REC-SVG-20010904/DTD/svg10.dtd">
<svg version="1.0" xmlns="http://www.w3.org/2000/svg"
 width="610.000000pt" height="340.000000pt" viewBox="0 0 610.000000 340.000000"
 preserveAspectRatio="xMidYMid meet">

<g transform="translate(0.000000,340.000000) scale(0.100000,-0.100000)"
fill="#000000" stroke="none">
<path d="M2996 3343 c-2 -16 -8 -50 -11 -78 -18 -131 -80 -224 -247 -370 -170
-149 -231 -216 -277 -304 -50 -97 -71 -181 -71 -292 0 -180 60 -321 194 -454
63 -62 100 -89 166 -122 47 -23 109 -46 138 -52 73 -15 204 -13 284 3 279 60
498 337 498 631 0 113 -52 274 -113 350 l-25 29 -6 -54 c-18 -137 -67 -247
-148 -329 -67 -67 -136 -101 -204 -101 -64 0 -96 23 -119 84 -16 41 -16 48 -1
93 9 27 46 86 86 136 38 48 86 122 107 164 38 77 38 77 38 202 0 141 -12 181
-87 293 -40 60 -170 198 -187 198 -5 0 -12 -12 -15 -27z"/>
<path d="M1520 1140 l0 -400 90 0 90 0 0 169 c0 158 1 170 23 202 28 42 80 58
127 39 53 -22 60 -49 60 -240 l0 -170 91 0 91 0 -4 208 c-3 188 -6 211 -25
248 -29 54 -84 101 -129 110 -63 12 -147 -1 -192 -30 l-42 -26 0 145 0 145
-90 0 -90 0 0 -400z"/>
<path d="M530 1221 c0 -254 -1 -270 -20 -294 -47 -59 -153 -56 -190 6 -11 18
-20 40 -20 50 0 24 -20 23 -158 -8 -29 -7 -28 -29 4 -93 54 -108 152 -158 294
-150 62 4 88 10 131 35 61 34 113 95 129 151 5 21 10 151 10 305 l0 267 -90 0
-90 0 0 -269z"/>
<path d="M3810 1115 l0 -375 95 0 95 0 2 214 3 213 185 -213 185 -213 78 -1
77 0 0 375 0 375 -90 0 -90 0 -2 -226 -3 -226 -190 226 -190 225 -77 1 -78 0
0 -375z"/>
<path d="M4660 1115 l0 -375 90 0 90 0 0 135 0 135 175 0 175 0 0 80 0 80
-175 0 -175 0 0 80 0 80 200 0 200 0 0 80 0 80 -290 0 -290 0 0 -375z"/>
<path d="M5290 1410 l0 -80 120 0 120 0 0 -295 0 -295 90 0 90 0 0 295 0 295
120 0 120 0 0 80 0 80 -330 0 -330 0 0 -80z"/>
<path d="M1030 1301 c-185 -57 -273 -258 -184 -422 91 -166 347 -201 486 -66
67 65 83 106 83 212 0 80 -3 95 -27 137 -55 93 -157 149 -271 147 -34 0 -73
-4 -87 -8z m138 -145 c83 -43 110 -151 58 -232 -23 -34 -81 -57 -125 -50 -133
21 -165 205 -49 276 39 23 78 25 116 6z"/>
<path d="M2464 1291 c-23 -10 -45 -24 -48 -30 -12 -19 -26 -12 -26 14 0 25 -1
25 -90 25 l-90 0 0 -280 0 -280 90 0 90 0 0 149 c0 173 4 202 35 235 43 47
107 46 151 -1 24 -25 24 -30 24 -204 l0 -179 91 0 90 0 -3 213 c-3 203 -4 214
-27 254 -39 68 -90 97 -175 101 -54 2 -81 -2 -112 -17z"/>
<path d="M2936 1035 c63 -147 114 -272 114 -279 0 -7 -18 -54 -40 -105 -22
-50 -40 -94 -40 -97 0 -3 42 -3 93 -2 l92 3 157 365 c87 201 158 369 158 373
0 4 -41 6 -91 5 l-91 -3 -71 -163 -70 -163 -67 163 -67 163 -95 3 -96 3 114
-266z"/>
<path d="M4285 517 c-27 -11 -51 -21 -52 -22 -1 -1 11 -38 28 -82 l31 -82 50
20 c27 10 51 19 53 19 3 0 5 5 5 11 0 7 -16 8 -45 3 -43 -6 -45 -5 -45 19 0
18 7 27 25 31 40 10 29 25 -15 19 -35 -5 -40 -3 -40 14 0 13 11 25 30 33 17 7
30 19 30 26 0 8 -1 14 -2 13 -2 0 -25 -10 -53 -22z"/>
<path d="M1520 520 c0 -10 52 -40 70 -40 20 0 9 20 -20 35 -34 17 -50 19 -50
5z"/>
<path d="M1731 509 c-5 -13 -19 -48 -30 -78 -14 -35 -18 -58 -12 -64 15 -15
26 -2 46 50 23 60 45 86 44 51 0 -13 -4 -45 -8 -73 -9 -49 -3 -64 24 -65 6 0
23 21 40 48 41 65 55 79 55 54 0 -10 -7 -41 -15 -68 -19 -62 -19 -64 3 -64 15
0 24 17 40 74 12 41 22 77 22 79 0 3 -17 11 -37 18 -29 9 -38 9 -41 0 -2 -7
-15 -24 -28 -39 l-23 -27 -1 51 c0 40 -4 53 -17 57 -10 2 -26 8 -35 12 -13 5
-20 1 -27 -16z"/>
<path d="M4498 518 c-28 -10 -35 -22 -19 -32 12 -8 72 17 68 28 -5 14 -19 16
-49 4z"/>
<path d="M4090 449 c-39 -16 -70 -50 -70 -78 0 -37 35 -89 64 -97 32 -8 80 8
84 27 2 11 -6 14 -36 11 -45 -4 -63 12 -65 60 -2 28 3 35 30 48 18 8 33 21 33
28 0 14 -6 14 -40 1z"/>
<path d="M2055 340 c-25 -39 -45 -75 -45 -80 0 -16 32 -11 45 6 8 12 20 15 43
9 25 -5 32 -12 32 -31 0 -17 6 -24 20 -24 18 0 20 7 20 85 0 83 -1 86 -26 95
-14 6 -29 10 -34 10 -5 0 -29 -32 -55 -70z m75 -5 c0 -28 -4 -35 -20 -35 -24
0 -26 18 -4 48 21 30 24 28 24 -13z"/>
<path d="M3806 365 c-10 -11 -16 -33 -16 -64 0 -27 -3 -63 -6 -81 -6 -29 -5
-31 17 -28 14 2 25 11 28 23 2 11 8 23 15 27 19 13 56 9 62 -7 5 -13 44 -23
44 -11 0 2 -19 37 -43 78 -46 77 -71 93 -101 63z m74 -82 c0 -8 -13 -13 -30
-13 -27 0 -30 3 -30 33 0 19 3 37 7 41 9 9 53 -43 53 -61z"/>
<path d="M2315 346 c-2 -6 -10 -43 -18 -83 -12 -62 -12 -73 0 -77 26 -10 33
-6 33 17 0 34 15 50 38 43 15 -5 22 -17 24 -44 2 -29 8 -38 25 -40 20 -3 21
-1 12 39 -8 33 -7 45 6 59 21 23 19 57 -5 70 -34 18 -111 29 -115 16z m79 -22
c9 -3 16 -17 16 -30 0 -20 -5 -24 -30 -24 -27 0 -30 3 -30 30 0 30 11 37 44
24z"/>
<path d="M3545 320 c-3 -5 -1 -46 6 -90 l13 -81 40 6 c61 10 76 15 76 28 0 8
-13 11 -39 9 -43 -4 -43 -4 -56 91 -7 45 -25 62 -40 37z"/>
<path d="M2566 263 c-4 -32 -10 -73 -13 -90 -5 -30 -3 -33 21 -33 24 0 26 3
26 41 0 55 28 50 48 -8 10 -31 19 -43 33 -43 18 0 18 2 4 36 -20 49 -19 62 11
101 l25 33 -24 0 c-15 0 -29 -9 -37 -26 -8 -14 -22 -30 -32 -35 -16 -9 -18 -5
-18 30 0 34 -12 51 -35 51 -1 0 -6 -26 -9 -57z"/>
<path d="M3295 223 c8 -98 10 -103 36 -103 19 0 21 4 15 35 -7 35 -6 35 28 35
40 0 66 21 66 54 0 38 -30 56 -94 56 l-57 0 6 -77z m103 26 c2 -20 -2 -28 -20
-33 -36 -9 -38 -8 -38 30 0 33 2 35 28 32 21 -2 28 -9 30 -29z"/>
<path d="M2822 203 l3 -88 58 -3 c46 -2 57 0 57 13 0 11 -11 15 -40 15 -36 0
-40 3 -40 25 0 22 4 25 35 25 19 0 35 5 35 10 0 6 -13 10 -30 10 -25 0 -30 4
-30 24 0 21 5 25 37 28 20 2 38 9 41 16 3 9 -14 12 -63 12 l-66 0 3 -87z"/>
<path d="M3040 275 c0 -9 9 -15 25 -15 23 0 24 -3 27 -72 3 -68 5 -73 27 -76
24 -4 24 -3 19 72 l-5 76 29 0 c18 0 28 5 28 15 0 12 -15 15 -75 15 -60 0 -75
-3 -75 -15z"/>
</g>
</svg>
