<?xml version="1.0" standalone="no"?>
<!DOCTYPE svg PUBLIC "-//W3C//DTD SVG 20010904//EN"
 "http://www.w3.org/TR/2001/REC-SVG-20010904/DTD/svg10.dtd">
<svg version="1.0" xmlns="http://www.w3.org/2000/svg"
 width="168.000000pt" height="142.000000pt" viewBox="0 0 168.000000 142.000000"
 preserveAspectRatio="xMidYMid meet">
<metadata>
Created by potrace 1.16, written by Peter Selinger 2001-2019
</metadata>
<g transform="translate(0.000000,142.000000) scale(0.100000,-0.100000)"
fill="#8147e5" stroke="none">
<path d="M245 1304 c-104 -58 -200 -116 -213 -130 -21 -25 -22 -31 -22 -254 0
-223 1 -230 22 -254 35 -39 397 -236 433 -236 22 0 135 59 370 191 266 149
348 191 376 192 26 0 68 -18 150 -64 148 -83 151 -88 147 -261 -3 -118 -5
-128 -27 -152 -39 -41 -233 -146 -270 -146 -40 0 -241 110 -271 147 -16 21
-20 41 -20 104 0 44 -3 79 -6 79 -4 0 -40 -18 -80 -41 l-74 -40 0 -85 c0 -80
2 -87 28 -113 41 -41 393 -231 427 -231 31 0 392 195 430 231 19 18 20 35 23
253 3 232 3 234 -20 260 -13 14 -108 73 -212 131 -141 79 -197 105 -224 105
-27 0 -78 -24 -204 -95 -92 -52 -245 -139 -339 -192 -117 -66 -182 -97 -203
-97 -39 0 -247 114 -276 151 -18 23 -20 41 -20 163 0 122 2 140 20 163 30 37
231 147 271 147 47 0 256 -116 280 -155 14 -22 19 -49 19 -102 0 -40 2 -73 4
-73 2 0 35 17 73 39 l68 39 2 88 c2 63 -1 94 -11 107 -24 31 -398 237 -431
237 -19 0 -99 -38 -220 -106z"/>
</g>
</svg>
